<?xml version="1.0" encoding="UTF-8"?>
<!DOCTYPE svg PUBLIC "-//W3C//DTD SVG 1.1//EN" "http://www.w3.org/Graphics/SVG/1.1/DTD/svg11.dtd">
<!-- Creator: CorelDRAW X8 -->
<svg xmlns="http://www.w3.org/2000/svg" xml:space="preserve" width="91.44mm" height="91.44mm" version="1.1" style="shape-rendering:geometricPrecision; text-rendering:geometricPrecision; image-rendering:optimizeQuality; fill-rule:evenodd; clip-rule:evenodd"
viewBox="0 0 9144 9144"
 xmlns:xlink="http://www.w3.org/1999/xlink">
 <defs>
  <style type="text/css">
   <![CDATA[
    .fil0 {fill:#5D87FF}
    .fil2 {fill:white}
    .fil1 {fill:white;fill-rule:nonzero}
   ]]>
  </style>
 </defs>
 <g id="Layer_x0020_1">
  <metadata id="CorelCorpID_0Corel-Layer"/>
  <rect class="fil0" x="931" y="3810" width="7281" height="1524" rx="85" ry="85"/>
  <g id="_291223568">
   <polygon class="fil1" points="6966,4117 7195,4117 7522,4679 7535,4679 7522,4503 7522,4117 7718,4117 7718,5027 7510,5027 7162,4432 7149,4432 7162,4608 7162,5027 6966,5027 "/>
   <path class="fil1" d="M4849 4117l229 0 340 910 -218 0 -70 -204 -333 0 -70 204 -218 0 340 -910zm217 526l-66 -190 -30 -112 -13 0 -30 112 -67 190 206 0z"/>
   <path class="fil1" d="M6407 4364l0 114 361 0 0 188 -361 0 0 173 402 0 0 188 -600 0 0 -663 198 0zm-198 -59l-61 0 -61 0 -254 0 0 722 -198 0 0 -722 -254 0 0 -188 706 0 122 0 600 0 0 188 -313 0 -89 0 -198 0z"/>
   <polygon class="fil1" points="3706,4117 3904,4117 3904,4468 3917,4468 4217,4117 4452,4117 4452,4130 4128,4500 4491,5014 4491,5027 4250,5027 3991,4657 3904,4757 3904,5027 3706,5027 "/>
   <polygon class="fil1" points="2551,4305 2551,4478 2912,4478 2912,4666 2551,4666 2551,4839 2953,4839 2953,5027 2353,5027 2353,4117 2953,4117 2953,4305 "/>
   <polygon class="fil1" points="1426,4117 1624,4117 1624,4468 1972,4468 1972,4117 2170,4117 2170,5027 1972,5027 1972,4656 1624,4656 1624,5027 1426,5027 "/>
   <polygon class="fil2" points="3171,4117 3499,4679 3499,4679 3499,4503 3499,4117 "/>
   <polygon class="fil2" points="3486,5027 3138,4432 3138,4432 3138,4608 3138,5027 "/>
  </g>
 </g>
</svg>
