<?xml version="1.0" encoding="UTF-8"?>
<!DOCTYPE svg PUBLIC "-//W3C//DTD SVG 1.1//EN" "http://www.w3.org/Graphics/SVG/1.1/DTD/svg11.dtd">
<!-- Creator: CorelDRAW X8 -->
<svg xmlns="http://www.w3.org/2000/svg" xml:space="preserve" width="80.9414mm" height="28.7866mm" version="1.1" style="shape-rendering:geometricPrecision; text-rendering:geometricPrecision; image-rendering:optimizeQuality; fill-rule:evenodd; clip-rule:evenodd"
viewBox="0 0 8094 2879"
 xmlns:xlink="http://www.w3.org/1999/xlink">
 <defs>
  <style type="text/css">
   <![CDATA[
    .fil0 {fill:none}
    .fil2 {fill:#474080}
    .fil1 {fill:#474080;fill-rule:nonzero}
    .fil3 {fill:#FF6600;fill-rule:nonzero}
   ]]>
  </style>
 </defs>
 <g id="Layer_x0020_1">
  <metadata id="CorelCorpID_0Corel-Layer"/>
  <rect class="fil0" width="8094" height="2879"/>
  <polygon class="fil1" points="6441,985 6670,985 6997,1546 7010,1546 6997,1371 6997,985 7193,985 7193,1894 6985,1894 6637,1300 6624,1300 6637,1475 6637,1894 6441,1894 "/>
  <path class="fil1" d="M5882 1232l0 113 361 0 0 188 -361 0 0 173 402 0 0 188 -600 0 0 -662 198 0zm-198 -59l-61 0 -61 0 -254 0 0 721 -198 0 0 -721 -254 0 0 -188 706 0 122 0 600 0 0 188 -313 0 -89 0 -198 0z"/>
  <polygon class="fil1" points="3181,985 3379,985 3379,1335 3392,1335 3692,985 3927,985 3927,997 3603,1367 3966,1881 3966,1894 3725,1894 3466,1524 3379,1625 3379,1894 3181,1894 "/>
  <polygon class="fil1" points="2026,1173 2026,1345 2387,1345 2387,1533 2026,1533 2026,1706 2428,1706 2428,1894 1828,1894 1828,985 2428,985 2428,1173 "/>
  <polygon class="fil1" points="901,985 1099,985 1099,1335 1447,1335 1447,985 1645,985 1645,1894 1447,1894 1447,1523 1099,1523 1099,1894 901,1894 "/>
  <g id="_608528080">
   <polygon class="fil2" points="2646,985 2974,1546 2974,1546 2974,1371 2974,985 "/>
   <polygon class="fil2" points="2961,1894 2613,1300 2613,1300 2613,1475 2613,1894 "/>
  </g>
  <g>
   <path class="fil3" d="M4373 1133c-21,-42 -3,-93 38,-114 42,-21 93,-4 114,38l-152 76zm166 333l-166 -333 152 -76 166 333 0 2 -152 74zm152 -76c20,42 3,93 -39,114 -41,21 -92,4 -113,-38l152 -76zm47 100l-153 73 0 0 -1 -3 -2 -3 -1 -3 -1 -3 -2 -4 -1 -3 -2 -3 -1 -3 -2 -3 -1 -3 -2 -3 -1 -3 -2 -3 -1 -3 -2 -3 -1 -3 -2 -3 -1 -3 -1 -3 -2 -3 -1 -4 -2 -3 -1 -3 -2 -3 -1 -3 -2 -3 -1 -3 -2 -3 -1 -3 -2 -3 -1 -3 -2 -3 153 -73 2 3 1 3 1 3 2 3 1 3 2 3 1 3 2 3 1 3 2 3 1 3 2 3 1 3 2 3 1 3 2 4 1 3 1 3 2 3 1 3 2 3 1 3 2 3 1 3 2 3 1 3 2 3 1 3 2 3 1 3 2 4 1 3 0 0zm0 0c20,42 3,92 -40,113 -42,20 -92,2 -113,-40l153 -73zm47 98l-153 73 0 0 -1 -3 -1 -3 -2 -3 -1 -3 -2 -3 -1 -3 -2 -4 -1 -3 -2 -3 -1 -3 -2 -3 -1 -3 -2 -3 -1 -3 -2 -3 -1 -3 -2 -3 -1 -3 -1 -3 -2 -3 -1 -4 -2 -3 -1 -3 -2 -3 -1 -3 -2 -3 -1 -3 -2 -3 -1 -3 -2 -3 -1 -3 -2 -3 153 -73 2 3 1 3 2 3 1 3 1 3 2 3 1 3 2 3 1 3 2 3 1 3 2 3 1 3 2 3 1 4 2 3 1 3 2 3 1 3 1 3 2 3 1 3 2 3 1 3 2 3 1 3 2 3 1 3 2 3 1 3 2 4 1 3 0 0zm0 0c20,42 3,92 -40,113 -42,20 -92,2 -113,-40l153 -73zm47 98l-152 73 0 0 -2 -3 -1 -3 -2 -3 -1 -3 -2 -3 -1 -3 -2 -4 -1 -3 -2 -3 -1 -3 -2 -3 -1 -3 -2 -3 -1 -3 -2 -3 -1 -3 -1 -3 -2 -3 -1 -3 -2 -3 -1 -3 -2 -4 -1 -3 -2 -3 -1 -3 -2 -3 -1 -3 -2 -3 -1 -3 -2 -3 -1 -3 -2 -3 153 -73 2 3 1 3 2 3 1 3 1 3 2 3 1 3 2 3 1 3 2 3 1 3 2 3 1 3 2 3 1 4 2 3 1 3 2 3 1 3 2 3 1 3 1 3 2 3 1 3 2 3 1 3 2 3 1 3 2 3 1 4 2 3 1 3 0 0zm0 0c20,42 3,92 -40,113 -42,20 -92,2 -112,-40l152 -73zm-29 219l0 -169 -76 121 -2 -3 -1 -3 -2 -3 -1 -3 -2 -3 -1 -3 -2 -4 -1 -3 -2 -3 -1 -3 -2 -3 -1 -3 -2 -3 -1 -3 -2 -3 -1 -3 -1 -3 -2 -3 -1 -3 -2 -3 -1 -3 -2 -3 -1 -3 -2 -4 -1 -3 -2 -3 -1 -3 -2 -3 -1 -3 -2 -3 -1 -3 -1 -3 152 -73 2 3 1 3 2 3 1 3 2 3 1 3 1 3 2 3 1 3 2 3 1 3 2 3 1 4 2 3 1 3 2 3 1 3 2 3 1 3 2 3 1 3 2 3 1 3 1 3 2 3 1 3 2 3 1 3 2 4 1 3 2 3 1 3 -76 121zm76 -121c20,42 3,92 -39,113 -43,20 -93,2 -113,-40l152 -73zm-452 -48l376 0 0 169 -376 0 0 0 0 -169zm0 169c-47,0 -85,-38 -85,-85 0,-46 38,-84 85,-84l0 169zm-95 0l0 -169 0 0 3 0 3 0 3 0 3 0 3 0 3 0 3 0 3 0 3 0 3 0 3 0 3 0 3 0 3 0 3 0 2 0 3 0 3 0 3 0 3 0 3 0 3 0 3 0 3 0 3 0 3 0 3 0 3 0 3 0 3 0 3 0 3 0 0 169 -3 0 -3 0 -3 0 -3 0 -3 0 -3 0 -3 0 -3 0 -3 0 -3 0 -3 0 -3 0 -3 0 -3 0 -3 0 -3 0 -2 0 -3 0 -3 0 -3 0 -3 0 -3 0 -3 0 -3 0 -3 0 -3 0 -3 0 -3 0 -3 0 -3 0 -3 0 -3 0 0 0zm0 0c-46,0 -84,-38 -84,-85 0,-46 38,-84 84,-84l0 169zm-94 0l0 -169 0 0 3 0 3 0 3 0 3 0 3 0 3 0 3 0 3 0 3 0 3 0 3 0 3 0 3 0 3 0 2 0 3 0 3 0 3 0 3 0 3 0 3 0 3 0 3 0 3 0 3 0 3 0 3 0 3 0 3 0 3 0 3 0 2 0 0 169 -2 0 -3 0 -3 0 -3 0 -3 0 -3 0 -3 0 -3 0 -3 0 -3 0 -3 0 -3 0 -3 0 -3 0 -3 0 -3 0 -3 0 -2 0 -3 0 -3 0 -3 0 -3 0 -3 0 -3 0 -3 0 -3 0 -3 0 -3 0 -3 0 -3 0 -3 0 -3 0 0 0zm0 0c-46,0 -84,-38 -84,-85 0,-46 38,-84 84,-84l0 169zm-94 0l0 -169 0 0 3 0 3 0 3 0 3 0 3 0 3 0 3 0 3 0 3 0 3 0 3 0 3 0 2 0 3 0 3 0 3 0 3 0 3 0 3 0 3 0 3 0 3 0 3 0 3 0 3 0 3 0 3 0 3 0 3 0 2 0 3 0 3 0 0 169 -3 0 -3 0 -2 0 -3 0 -3 0 -3 0 -3 0 -3 0 -3 0 -3 0 -3 0 -3 0 -3 0 -3 0 -3 0 -3 0 -3 0 -3 0 -3 0 -2 0 -3 0 -3 0 -3 0 -3 0 -3 0 -3 0 -3 0 -3 0 -3 0 -3 0 -3 0 -3 0 0 0zm0 0c-46,0 -84,-38 -84,-85 0,-46 38,-84 84,-84l0 169zm-170 -121l153 73 -77 -121 3 0 3 0 3 0 3 0 3 0 3 0 3 0 3 0 3 0 3 0 3 0 2 0 3 0 3 0 3 0 3 0 3 0 3 0 3 0 3 0 3 0 3 0 3 0 3 0 3 0 3 0 3 0 3 0 2 0 3 0 3 0 3 0 0 169 -3 0 -3 0 -3 0 -2 0 -3 0 -3 0 -3 0 -3 0 -3 0 -3 0 -3 0 -3 0 -3 0 -3 0 -3 0 -3 0 -3 0 -3 0 -3 0 -3 0 -2 0 -3 0 -3 0 -3 0 -3 0 -3 0 -3 0 -3 0 -3 0 -3 0 -3 0 -3 0 -76 -121zm76 121c-47,0 -84,-38 -84,-85 0,-46 37,-84 84,-84l0 169zm265 -440l-188 392 -153 -73 188 -392 0 -1 153 74zm-153 -73c20,-43 71,-60 113,-40 42,20 60,71 40,113l-153 -73zm47 -99l153 74 0 0 -2 3 -1 3 -2 3 -1 3 -2 3 -1 3 -2 3 -1 3 -1 3 -2 3 -1 3 -2 3 -1 4 -2 3 -1 3 -2 3 -1 3 -2 3 -1 3 -2 3 -1 3 -2 3 -1 3 -2 3 -1 3 -1 3 -2 3 -1 3 -2 4 -1 3 -2 3 -1 3 -153 -74 1 -3 2 -3 1 -3 2 -3 1 -3 2 -3 1 -3 2 -3 1 -3 2 -3 1 -3 2 -3 1 -3 2 -3 1 -4 2 -3 1 -3 1 -3 2 -3 1 -3 2 -3 1 -3 2 -3 1 -3 2 -3 1 -3 2 -3 1 -3 2 -3 1 -3 2 -3 1 -4 0 0zm0 0c20,-42 71,-59 113,-39 42,20 60,71 40,113l-153 -74zm47 -98l153 74 0 0 -2 3 -1 3 -2 3 -1 3 -2 3 -1 3 -2 3 -1 3 -1 3 -2 3 -1 3 -2 3 -1 4 -2 3 -1 3 -2 3 -1 3 -2 3 -1 3 -2 3 -1 3 -2 3 -1 3 -1 3 -2 3 -1 3 -2 3 -1 3 -2 4 -1 3 -2 3 -1 3 -153 -74 2 -3 1 -3 1 -3 2 -3 1 -3 2 -3 1 -3 2 -3 1 -3 2 -3 1 -3 2 -3 1 -3 2 -3 1 -3 2 -4 1 -3 2 -3 1 -3 1 -3 2 -3 1 -3 2 -3 1 -3 2 -3 1 -3 2 -3 1 -3 2 -3 1 -3 2 -4 1 -3 0 0zm0 0c20,-42 71,-60 113,-39 42,20 60,71 40,113l-153 -74zm93 -173l152 73 -1 4 -2 4 -3 4 -2 4 -2 5 -3 6 -3 5 -3 6 -3 6 -4 6 -3 7 -4 6 -4 7 -3 7 -4 7 -4 7 -4 7 -3 6 -4 7 -4 7 -3 6 -4 7 -3 6 -3 6 -3 5 -3 5 -2 5 -3 5 -2 3 -1 4 -1 2 -1 2 -153 -74 2 -3 2 -4 2 -5 2 -4 3 -5 3 -5 3 -6 3 -5 3 -6 3 -7 4 -6 4 -7 3 -7 4 -6 4 -7 3 -7 4 -7 4 -7 4 -7 3 -7 4 -6 3 -6 3 -6 4 -6 3 -6 2 -5 3 -5 2 -4 2 -4 2 -3 1 -3 1 -1zm0 0c20,-42 71,-60 113,-40 42,20 60,71 39,113l-152 -73z"/>
  </g>
 </g>
</svg>
