<svg width="231" height="49" viewBox="0 0 231 49" fill="none" xmlns="http://www.w3.org/2000/svg">
<path d="M20.736 13.664V36H16.256V26.496H6.688V36H2.208V13.664H6.688V22.848H16.256V13.664H20.736ZM29.6255 17.28V22.88H37.1455V26.432H29.6255V32.352H38.1055V36H25.1455V13.632H38.1055V17.28H29.6255ZM61.2808 36H56.8008L46.6568 20.672V36H42.1768V13.632H46.6568L56.8008 28.992V13.632H61.2808V36ZM78.316 36L70.188 26.048V36H65.708V13.664H70.188V23.68L78.316 13.664H83.724L74.508 24.736L83.98 36H78.316ZM100.623 31.744H91.7268L90.2548 36H85.5508L93.5828 13.632H98.7988L106.831 36H102.095L100.623 31.744ZM99.4068 28.16L96.1748 18.816L92.9427 28.16H99.4068ZM125.033 13.664V17.28H119.081V36H114.601V17.28H108.649V13.664H125.033ZM132.782 17.28V22.88H140.302V26.432H132.782V32.352H141.262V36H128.302V13.632H141.262V17.28H132.782ZM164.437 36H159.957L149.813 20.672V36H145.333V13.632H149.813L159.957 28.992V13.632H164.437V36Z" fill="black"/>
<line x1="86" y1="2" x2="200.017" y2="2" stroke="#6E34AC" stroke-width="4" stroke-linecap="round"/>
<line x1="174" y1="15" x2="229" y2="15" stroke="#7281FF" stroke-width="4" stroke-linecap="round"/>
<line x1="174" y1="28" x2="205" y2="28" stroke="#FF0000" stroke-width="4" stroke-linecap="round"/>
</svg>
